<svg width="353" height="66" viewBox="0 0 353 66" fill="none" xmlns="http://www.w3.org/2000/svg">
<rect x="5" y="5.5" width="55" height="55" rx="5.5" fill="#FAFCFC" stroke="#4A4DC9" stroke-width="1.5" stroke-linecap="round" stroke-dasharray="4 4"/>
<rect x="11.875" y="12.375" width="11" height="41.25" rx="1.375" fill="#4A4DC9"/>
<rect x="26.875" y="12.375" width="11" height="20.625" rx="1.375" fill="#D5D6FF"/>
<rect x="41.875" y="12.375" width="11" height="31.625" rx="1.375" fill="#9596E3"/>
<path d="M73.92 54V13.68H98.196V20.428H80.668V30.48H94.836V37.2H80.668V54H73.92ZM103.793 54V12.84H110.541V54H103.793ZM132.284 54.84C129.26 54.84 126.618 54.1587 124.36 52.796C122.101 51.4333 120.346 49.5573 119.096 47.168C117.864 44.76 117.248 41.9973 117.248 38.88C117.248 35.7067 117.882 32.9253 119.152 30.536C120.421 28.1467 122.185 26.28 124.444 24.936C126.702 23.592 129.316 22.92 132.284 22.92C135.326 22.92 137.977 23.6013 140.236 24.964C142.494 26.3267 144.249 28.212 145.5 30.62C146.75 33.0093 147.376 35.7627 147.376 38.88C147.376 42.016 146.741 44.788 145.472 47.196C144.221 49.5853 142.466 51.4613 140.208 52.824C137.949 54.168 135.308 54.84 132.284 54.84ZM132.284 48.512C134.972 48.512 136.969 47.616 138.276 45.824C139.582 44.032 140.236 41.7173 140.236 38.88C140.236 35.9493 139.573 33.616 138.248 31.88C136.922 30.1253 134.934 29.248 132.284 29.248C130.473 29.248 128.98 29.6587 127.804 30.48C126.646 31.2827 125.788 32.412 125.228 33.868C124.668 35.3053 124.388 36.976 124.388 38.88C124.388 41.8107 125.05 44.1533 126.376 45.908C127.72 47.644 129.689 48.512 132.284 48.512ZM158.891 54L149.651 23.704L156.259 23.76L162.167 43.164L168.159 23.76H173.843L179.807 43.164L185.743 23.76H192.351L183.111 54H177.847L170.987 33.196L164.155 54H158.891ZM197.404 54V13.68H213.392C216.118 13.68 218.348 14.2307 220.084 15.332C221.839 16.4147 223.136 17.8053 223.976 19.504C224.835 21.2027 225.264 22.9573 225.264 24.768C225.264 26.9893 224.732 28.8747 223.668 30.424C222.623 31.9733 221.195 33.0187 219.384 33.56V32.16C221.923 32.7387 223.846 33.9427 225.152 35.772C226.478 37.6013 227.14 39.6827 227.14 42.016C227.14 44.4053 226.683 46.496 225.768 48.288C224.854 50.08 223.491 51.48 221.68 52.488C219.888 53.496 217.667 54 215.016 54H197.404ZM204.236 47.644H214.176C215.352 47.644 216.407 47.4107 217.34 46.944C218.274 46.4587 219.002 45.7867 219.524 44.928C220.066 44.0507 220.336 43.0147 220.336 41.82C220.336 40.7373 220.103 39.7667 219.636 38.908C219.17 38.0493 218.488 37.368 217.592 36.864C216.696 36.3413 215.623 36.08 214.372 36.08H204.236V47.644ZM204.236 29.78H213.308C214.279 29.78 215.147 29.5933 215.912 29.22C216.678 28.8467 217.284 28.296 217.732 27.568C218.18 26.84 218.404 25.944 218.404 24.88C218.404 23.48 217.956 22.3133 217.06 21.38C216.164 20.4467 214.914 19.98 213.308 19.98H204.236V29.78ZM246.089 54.84C243.065 54.84 240.423 54.1587 238.165 52.796C235.906 51.4333 234.151 49.5573 232.901 47.168C231.669 44.76 231.053 41.9973 231.053 38.88C231.053 35.7067 231.687 32.9253 232.957 30.536C234.226 28.1467 235.99 26.28 238.249 24.936C240.507 23.592 243.121 22.92 246.089 22.92C249.131 22.92 251.782 23.6013 254.041 24.964C256.299 26.3267 258.054 28.212 259.305 30.62C260.555 33.0093 261.181 35.7627 261.181 38.88C261.181 42.016 260.546 44.788 259.277 47.196C258.026 49.5853 256.271 51.4613 254.013 52.824C251.754 54.168 249.113 54.84 246.089 54.84ZM246.089 48.512C248.777 48.512 250.774 47.616 252.081 45.824C253.387 44.032 254.041 41.7173 254.041 38.88C254.041 35.9493 253.378 33.616 252.053 31.88C250.727 30.1253 248.739 29.248 246.089 29.248C244.278 29.248 242.785 29.6587 241.609 30.48C240.451 31.2827 239.593 32.412 239.033 33.868C238.473 35.3053 238.193 36.976 238.193 38.88C238.193 41.8107 238.855 44.1533 240.181 45.908C241.525 47.644 243.494 48.512 246.089 48.512ZM275.806 54.84C273.622 54.84 271.774 54.4293 270.262 53.608C268.75 52.768 267.602 51.6573 266.818 50.276C266.052 48.8947 265.67 47.3733 265.67 45.712C265.67 44.256 265.912 42.9493 266.398 41.792C266.883 40.616 267.63 39.608 268.638 38.768C269.646 37.9093 270.952 37.2093 272.558 36.668C273.771 36.276 275.19 35.9213 276.814 35.604C278.456 35.2867 280.23 34.9973 282.134 34.736C284.056 34.456 286.063 34.1573 288.154 33.84L285.746 35.212C285.764 33.1213 285.298 31.5813 284.346 30.592C283.394 29.6027 281.788 29.108 279.53 29.108C278.167 29.108 276.851 29.4253 275.582 30.06C274.312 30.6947 273.426 31.7867 272.922 33.336L266.762 31.404C267.508 28.8467 268.927 26.7933 271.018 25.244C273.127 23.6947 275.964 22.92 279.53 22.92C282.218 22.92 284.579 23.3587 286.614 24.236C288.667 25.1133 290.188 26.5507 291.178 28.548C291.719 29.612 292.046 30.704 292.158 31.824C292.27 32.9253 292.326 34.1293 292.326 35.436V54H286.418V47.448L287.398 48.512C286.035 50.696 284.439 52.3013 282.61 53.328C280.799 54.336 278.531 54.84 275.806 54.84ZM277.15 49.464C278.68 49.464 279.987 49.1933 281.07 48.652C282.152 48.1107 283.011 47.448 283.646 46.664C284.299 45.88 284.738 45.1427 284.962 44.452C285.316 43.5933 285.512 42.6133 285.55 41.512C285.606 40.392 285.634 39.4867 285.634 38.796L287.706 39.412C285.671 39.7293 283.926 40.0093 282.47 40.252C281.014 40.4947 279.763 40.728 278.718 40.952C277.672 41.1573 276.748 41.3907 275.946 41.652C275.162 41.932 274.499 42.2587 273.958 42.632C273.416 43.0053 272.996 43.4347 272.698 43.92C272.418 44.4053 272.278 44.9747 272.278 45.628C272.278 46.3747 272.464 47.0373 272.838 47.616C273.211 48.176 273.752 48.624 274.462 48.96C275.19 49.296 276.086 49.464 277.15 49.464ZM299.615 54V23.76H305.579V31.124L304.851 30.172C305.225 29.164 305.719 28.2493 306.335 27.428C306.97 26.588 307.726 25.8973 308.603 25.356C309.35 24.852 310.171 24.46 311.067 24.18C311.982 23.8813 312.915 23.704 313.867 23.648C314.819 23.5733 315.743 23.6107 316.639 23.76V30.06C315.743 29.7987 314.707 29.7147 313.531 29.808C312.374 29.9013 311.329 30.228 310.395 30.788C309.462 31.292 308.697 31.936 308.099 32.72C307.521 33.504 307.091 34.4 306.811 35.408C306.531 36.3973 306.391 37.4707 306.391 38.628V54H299.615ZM333.56 54.84C330.778 54.84 328.352 54.14 326.28 52.74C324.208 51.34 322.602 49.436 321.464 47.028C320.325 44.62 319.756 41.904 319.756 38.88C319.756 35.8187 320.325 33.0933 321.464 30.704C322.621 28.296 324.254 26.4013 326.364 25.02C328.473 23.62 330.956 22.92 333.812 22.92C336.686 22.92 339.094 23.62 341.036 25.02C342.996 26.4013 344.48 28.296 345.488 30.704C346.496 33.112 347 35.8373 347 38.88C347 41.8853 346.496 44.6013 345.488 47.028C344.48 49.436 342.977 51.34 340.98 52.74C338.982 54.14 336.509 54.84 333.56 54.84ZM334.596 48.792C336.406 48.792 337.862 48.3813 338.964 47.56C340.084 46.72 340.896 45.5533 341.4 44.06C341.922 42.5667 342.184 40.84 342.184 38.88C342.184 36.9013 341.922 35.1747 341.4 33.7C340.896 32.2067 340.102 31.0493 339.02 30.228C337.937 29.388 336.537 28.968 334.82 28.968C333.009 28.968 331.516 29.416 330.34 30.312C329.164 31.1893 328.296 32.384 327.736 33.896C327.176 35.3893 326.896 37.0507 326.896 38.88C326.896 40.728 327.166 42.408 327.708 43.92C328.268 45.4133 329.117 46.5987 330.256 47.476C331.394 48.3533 332.841 48.792 334.596 48.792ZM342.184 54V32.776H341.344V13.68H348.148V54H342.184Z" fill="#162324"/>
</svg>
